HIERARCHY
ROOT root
{
	OFFSET	0	13.1	24.9
	CHANNELS 6  Xposition Yposition Zposition Xrotation Yrotation Zrotation
	JOINT spine_1
	{
		OFFSET	0	9.99999	0
		CHANNELS 3  Xrotation Yrotation Zrotation
		JOINT spine_2
		{
			OFFSET	0	112	-10
			CHANNELS 3  Xrotation Yrotation Zrotation
			JOINT spine_3
			{
				OFFSET	0	206.5	19.3
				CHANNELS 3  Xrotation Yrotation Zrotation
				JOINT spine_4
				{
					OFFSET	0	110.4	14.6
					CHANNELS 3  Xrotation Yrotation Zrotation
					JOINT neck_1
					{
						OFFSET	0	71.8	-50.3
						CHANNELS 3  Xrotation Yrotation Zrotation
						JOINT neck_2
						{
							OFFSET	0	86.2	-25.8
							CHANNELS 3  Xrotation Yrotation Zrotation
							JOINT head_ee
							{
								OFFSET	0	179.8	-8.7
								CHANNELS 3  Xrotation Yrotation Zrotation
								End Site
								{
									OFFSET	1	0	0
								}
							}
						}
					}
					JOINT left_clavicle
					{
						OFFSET	-43.2	22.4	-70.8
						CHANNELS 3  Xrotation Yrotation Zrotation
						JOINT left_shoulder
						{
							OFFSET	-93.9	-5.79999	48.7
							CHANNELS 3  Xrotation Yrotation Zrotation
							JOINT left_elbow
							{
								OFFSET	-291.4	-30.8	15.2
								CHANNELS 3  Xrotation Yrotation Zrotation
								JOINT left_lowarm_twist
								{
									OFFSET	-110.7	-3.89999	13.6
									CHANNELS 3  Xrotation Yrotation Zrotation
									JOINT left_hand
									{
										OFFSET	-110.7	-3.89999	13.6
										CHANNELS 3  Xrotation Yrotation Zrotation
										JOINT left_ee
										{
											OFFSET	-80.8	-5.10001	12.1
											CHANNELS 3  Xrotation Yrotation Zrotation
											End Site
											{
												OFFSET	1	0	0
											}
										}
									}
								}
							}
						}
					}
					JOINT right_clavicle
					{
						OFFSET	43.2	22.4	-70.8
						CHANNELS 3  Xrotation Yrotation Zrotation
						JOINT right_shoulder
						{
							OFFSET	93.9	-5.79999	48.7
							CHANNELS 3  Xrotation Yrotation Zrotation
							JOINT right_elbow
							{
								OFFSET	291.4	-30.8	15.2
								CHANNELS 3  Xrotation Yrotation Zrotation
								JOINT right_lowarm_twist
								{
									OFFSET	110.7	-3.89999	13.6
									CHANNELS 3  Xrotation Yrotation Zrotation
									JOINT right_hand
									{
										OFFSET	110.7	-3.89999	13.6
										CHANNELS 3  Xrotation Yrotation Zrotation
										JOINT right_ee
										{
											OFFSET	80.8	-5.10001	12.1
											CHANNELS 3  Xrotation Yrotation Zrotation
											End Site
											{
												OFFSET	1	0	0
											}
										}
									}
								}
							}
						}
					}
				}
			}
		}
	}
	JOINT left_hip
	{
		OFFSET	-82.8	-127.5	0.300001
		CHANNELS 3  Xrotation Yrotation Zrotation
		JOINT left_knee
		{
			OFFSET	-28.2	-396.7	2.2
			CHANNELS 3  Xrotation Yrotation Zrotation
			JOINT left_ankle
			{
				OFFSET	-11.7	-411.3	35.4
				CHANNELS 3  Xrotation Yrotation Zrotation
				JOINT left_toes
				{
					OFFSET	0	-60	-88.6
					CHANNELS 3  Xrotation Yrotation Zrotation
					JOINT left_foot_ee
					{
						OFFSET	-22.5	-16.5	-42.2
						CHANNELS 3  Xrotation Yrotation Zrotation
						End Site
						{
							OFFSET	1	0	0
						}
					}
				}
			}
		}
	}
	JOINT right_hip
	{
		OFFSET	82.8	-127.5	0.300001
		CHANNELS 3  Xrotation Yrotation Zrotation
		JOINT right_knee
		{
			OFFSET	28.2	-396.7	2.2
			CHANNELS 3  Xrotation Yrotation Zrotation
			JOINT right_ankle
			{
				OFFSET	11.7	-411.3	35.4
				CHANNELS 3  Xrotation Yrotation Zrotation
				JOINT right_toes
				{
					OFFSET	0	-60	-88.6
					CHANNELS 3  Xrotation Yrotation Zrotation
					JOINT right_foot_ee
					{
						OFFSET	22.5	-16.5	-42.2
						CHANNELS 3  Xrotation Yrotation Zrotation
						End Site
						{
							OFFSET	1	0	0
						}
					}
				}
			}
		}
	}
}
MOTION
Frames: 5
Frame Time: 0.02
450.034 728.595 -583.806 179.932 -70.9848 169.249 1.06001 1.17913 5.33766 1.07546 0.837601 5.40161 1.15871 -0.205313 5.46213 1.1177 0.658609 5.42627 -20.3242 5.43191 -1.63935 -20.508 11.2958 0.796197 -0.0 0.0 -0.0 -7.72005 23.5368 -7.97373 4.43687 -26.5583 73.3803 1.15619 -29.8007 0.307656 -77.0026 -7.44049 5.31005 -1.7333 14.345 -4.91954 -0.0 0.0 -0.0 12.2272 22.8589 -24.2235 -3.96948 14.5274 -70.9449 0.267171 7.53937 -0.0176035 60.1877 1.79067 7.12522 -2.05332 -20.3063 3.99286 0.0 0.0 0.0 -6.38142 14.0151 12.9556 -2.02783 0.0781672 0.30137 30.4006 26.4484 -4.19083 -34.8802 0.0 0.0 -0.0 0.0 -0.0 10.912 23.279 8.15597 -34.2887 0.14395 -5.18253 40.2208 3.42925 4.92886 -27.8675 0.0 0.0 0.0 0.0 0.0 
455.032 730.131 -579.605 178.233 -71.9918 167.771 0.970394 1.29776 5.36558 0.985897 0.954228 5.437 1.08138 -0.104493 5.51887 1.03972 0.767094 5.46645 -20.3498 4.75493 -2.82523 -20.4965 10.5852 -0.595907 -0.0 0.0 -0.0 -7.31419 23.7985 -7.30739 3.39455 -26.1226 72.244 1.03624 -27.1719 0.250432 -77.0054 -7.44086 5.31003 -1.48146 13.6513 -3.66848 -0.0 0.0 -0.0 12.3715 24.0918 -24.4366 -1.80178 14.6465 -70.539 0.285754 8.05711 -0.020125 60.8575 1.85086 7.18646 -2.16425 -20.3713 4.61878 0.0 0.0 0.0 -5.26102 13.5027 12.102 -4.60432 0.162001 0.687865 31.8193 27.1325 -4.37334 -33.3472 0.0 0.0 -0.0 0.0 -0.0 10.4189 20.5436 7.95451 -35.9123 0.227394 -5.41757 39.8586 3.08483 4.89356 -26.1228 0.0 0.0 0.0 0.0 0.0 
465.897 735.135 -578.645 175.998 -72.6222 165.655 0.740077 1.38849 5.34744 0.755371 1.04592 5.42464 0.860531 -0.0330596 5.52416 0.818951 0.838472 5.46045 -22.2368 4.22969 -3.50589 -22.3696 9.8053 -1.30895 -0.0 0.0 -0.0 -7.04105 24.4198 -6.71931 2.16068 -25.7698 71.8256 1.00708 -26.513 0.237262 -77.2904 -7.47719 5.30802 -1.31008 13.1171 -2.83746 -0.0 0.0 -0.0 12.4537 25.1125 -24.5185 -0.773151 14.596 -68.9809 0.386827 10.8479 -0.0367291 61.5131 1.91048 7.24573 -1.64225 -17.8783 2.69388 0.0 0.0 0.0 -4.0653 12.4051 11.7083 -7.73065 0.24025 1.1612 32.0453 26.642 -4.38477 -33.0215 0.0 0.0 -0.0 0.0 -0.0 9.01521 18.1506 8.52506 -36.7037 0.270485 -5.53129 39.5905 2.86744 4.86781 -24.287 0.0 0.0 0.0 0.0 0.0 
470.393 737.814 -581.556 173.646 -74.2461 163.663 0.50091 1.36103 5.32948 0.516127 1.01965 5.40498 0.61947 -0.0783076 5.49948 0.578159 0.789907 5.44319 -23.2612 3.89612 -4.01369 -23.3785 9.32785 -1.86515 -0.0 0.0 -0.0 -6.57306 24.9483 -5.90615 1.34551 -25.4125 71.1704 0.910166 -24.2688 0.195699 -77.4014 -7.49133 5.30718 -1.18991 12.5375 -2.34245 -0.0 0.0 -0.0 12.5072 25.4395 -24.6055 -0.0689133 15.0226 -67.3987 0.414535 11.6045 -0.0421235 61.7879 1.93567 7.27037 -1.46885 -18.1919 1.50058 0.0 0.0 0.0 -3.72961 14.2868 11.3108 -7.98204 0.245418 1.19943 33.0849 27.3927 -4.52426 -32.8591 0.0 0.0 -0.0 0.0 -0.0 8.45422 18.2673 8.40407 -39.419 0.430219 -5.91679 39.5302 2.69154 4.86054 -22.7753 0.0 0.0 0.0 0.0 0.0 
479.857 741.294 -579.991 170.777 -74.7303 160.888 0.263128 1.56754 5.26862 0.277725 1.22961 5.35734 0.4012 0.116921 5.495 0.360431 0.982002 5.40806 -24.0924 3.62616 -4.40986 -24.1945 8.9199 -2.31246 -0.0 0.0 -0.0 -6.67615 25.5541 -5.85564 -0.15527 -24.9544 70.6798 0.852041 -22.8833 0.172449 -77.4304 -7.49503 5.30696 -1.02282 11.8088 -1.61082 -0.0 0.0 -0.0 12.662 26.5946 -24.8277 1.00323 15.3703 -65.969 0.489679 13.6352 -0.0585437 62.0293 1.95789 7.29191 -1.19798 -17.163 0.324558 0.0 0.0 0.0 -2.99175 14.3349 11.3635 -8.49274 0.255399 1.27716 33.9018 27.1771 -4.60828 -32.5969 0.0 0.0 -0.0 0.0 -0.0 7.56986 16.8098 8.99768 -39.3491 0.42588 -5.90696 39.3428 2.55714 4.8427 -22.0785 0.0 0.0 0.0 0.0 0.0 
